<?xml version="1.0" encoding="UTF-8"?>
<svg id="_Слой_1" data-name=" Слой 1" xmlns="http://www.w3.org/2000/svg" viewBox="0 0 101.28 26.87">
  <defs>
    <style>
      .cls-1 {
        fill: #15214b;
        fill-rule: evenodd;
      }
    </style>
  </defs>
  <path class="cls-1" d="M40.01,15.74c-.27,.67-.66,1.22-1.16,1.65-.39,.32-.88,.55-1.47,.68-.59,.13-1.67,.2-3.21,.2h-.91V8.57h.91c1.51,0,2.58,.07,3.18,.21,.6,.14,1.1,.37,1.49,.7,.51,.43,.91,.98,1.17,1.64s.4,1.44,.4,2.31-.13,1.65-.4,2.32h0Zm-.16-7.47c-.55-.43-1.2-.73-1.94-.92-.73-.18-2.01-.27-3.79-.27h-2.46v12.68h3c1.48,0,2.59-.09,3.29-.27s1.34-.49,1.9-.92c.73-.56,1.29-1.28,1.66-2.15,.37-.86,.56-1.87,.56-3s-.19-2.14-.56-3.01c-.37-.87-.93-1.59-1.66-2.15h0Z"/>
  <path class="cls-1" d="M52.87,15.12c0,1.22-.26,2.13-.78,2.7s-1.34,.86-2.45,.86-1.93-.29-2.45-.86-.78-1.48-.78-2.7V7.09h-1.57V15.12c0,1.66,.4,2.93,1.2,3.75,.79,.83,2.01,1.25,3.6,1.25s2.81-.42,3.6-1.25c.79-.83,1.2-2.09,1.2-3.75V7.09h-1.57V15.12h0Z"/>
  <path class="cls-1" d="M78.92,15.42c-.26,.62-.64,1.19-1.13,1.68-.5,.5-1.06,.88-1.68,1.14s-1.28,.39-1.97,.39-1.35-.13-1.97-.39c-.61-.26-1.18-.64-1.68-1.14s-.88-1.07-1.13-1.69-.38-1.28-.38-1.98,.13-1.38,.39-2.01c.26-.63,.64-1.2,1.13-1.7,.48-.49,1.04-.87,1.66-1.13s1.29-.39,1.99-.39,1.36,.13,1.98,.39,1.18,.64,1.68,1.13c.49,.48,.86,1.05,1.12,1.69,.26,.63,.39,1.31,.39,2.01s-.13,1.37-.39,1.99h-.01Zm.07-6.74c-.64-.62-1.39-1.11-2.23-1.44-.84-.34-1.72-.51-2.63-.51s-1.78,.17-2.62,.51c-.84,.34-1.58,.82-2.22,1.44-.65,.63-1.15,1.36-1.49,2.17-.34,.81-.51,1.68-.51,2.59s.17,1.77,.51,2.58c.34,.81,.84,1.54,1.49,2.17,.64,.63,1.39,1.12,2.23,1.46,.83,.34,1.71,.51,2.61,.51s1.78-.17,2.62-.51c.84-.34,1.59-.83,2.24-1.46,.64-.63,1.14-1.35,1.48-2.16,.34-.81,.51-1.68,.51-2.59s-.17-1.79-.51-2.6c-.34-.81-.83-1.54-1.48-2.16h0Z"/>
  <polygon class="cls-1" points="92.7 17.51 85.01 7.12 84.99 7.1 83.5 7.1 83.5 19.77 85.02 19.77 85.02 9.58 92.74 19.75 92.76 19.77 94.22 19.77 94.22 7.11 92.7 7.11 92.7 17.51 92.7 17.51"/>
  <path class="cls-1" d="M62.44,12.68l-1.82-.8c-.58-.25-1.01-.54-1.28-.86s-.41-.7-.41-1.14c0-.52,.18-.96,.53-1.3s.81-.51,1.36-.51c.43,0,.83,.12,1.17,.35,.3,.2,.57,.5,.82,.89l1.47-.61h0l-.02-.04c-.32-.64-.76-1.12-1.33-1.45-.56-.33-1.24-.49-2.01-.49-1.05,0-1.92,.3-2.6,.9-.68,.6-1.02,1.36-1.02,2.28,0,.78,.21,1.46,.63,2.03,.42,.56,1.06,1.02,1.91,1.38l1.55,.66c.65,.29,1.14,.64,1.46,1.05s.48,.9,.48,1.45c0,.68-.23,1.25-.69,1.67-.46,.43-1.07,.64-1.81,.64-.63,0-1.16-.2-1.57-.58-.41-.38-.71-.95-.89-1.68l-1.39,.57-.1,.05v.04c.25,.95,.72,1.69,1.4,2.21,.68,.52,1.54,.78,2.55,.78,1.23,0,2.24-.36,2.99-1.09,.75-.72,1.13-1.68,1.13-2.86,0-.8-.21-1.51-.64-2.1-.42-.59-1.06-1.07-1.89-1.42h0l.02-.02Z"/>
  <path class="cls-1" d="M100.56,25.03c0,.3-.11,.57-.3,.76-.18,.2-.44,.32-.71,.32H25.32V.76H99.55c.28,0,.53,.12,.71,.32,.18,.2,.3,.47,.3,.76V25.03h0ZM5.53,21.24c-.38,0-.68-.34-.67-.75,0-.34,.21-.62,.49-.71l14.15-5.84c.35-.14,.74,.05,.87,.43,.13,.38-.05,.81-.4,.96l-10.8,4.46,10.62,.1c.37,0,.68,.34,.67,.75,0,.41-.31,.74-.68,.74h0l-14.25-.14m-.25-5.51l14.26-5.89c.35-.14,.74,.05,.87,.43,.13,.38-.04,.81-.4,.96l-14.26,5.89c-.35,.14-.74-.05-.87-.43-.13-.38,.05-.81,.4-.96h0ZM19.76,5.63c.38,0,.68,.34,.67,.75,0,.34-.21,.62-.49,.71L5.76,12.87c-.35,.14-.74-.05-.87-.43-.13-.38,.05-.81,.4-.96l10.83-4.4-10.59-.1h0c-.37,0-.68-.34-.67-.75,0-.41,.31-.74,.68-.74l14.22,.14M100.77,.54c-.31-.33-.74-.54-1.22-.54H1.42C.66,0,0,.84,0,1.67V25.09c0,.83,.66,1.78,1.42,1.78H99.55c.48,0,.91-.21,1.22-.54,.31-.33,.51-.79,.51-1.3V1.84c0-.51-.19-.97-.51-1.3h0Z"/>
</svg>